<svg id="svg" xmlns="http://www.w3.org/2000/svg" xmlns:xlink="http://www.w3.org/1999/xlink" width="512" height="512" viewBox="0, 0, 512,512"><g id="svgg"><path id="path0" d="M121.000 33.966 C 76.728 43.470,42.904 77.309,33.999 121.005 C 30.885 136.288,30.885 375.712,33.999 390.995 C 42.950 434.920,76.943 468.755,121.500 478.088 C 135.881 481.101,376.166 481.023,390.995 478.001 C 434.920 469.050,468.755 435.057,478.088 390.500 C 481.009 376.560,481.009 135.440,478.088 121.500 C 468.755 76.943,434.920 42.950,390.995 33.999 C 376.432 31.031,134.808 31.001,121.000 33.966 M264.048 163.253 C 271.401 168.209,271.464 168.553,271.810 206.190 L 272.120 239.880 305.810 240.190 C 343.447 240.536,343.791 240.599,348.747 247.952 C 353.473 254.966,350.830 264.844,342.997 269.446 C 339.688 271.390,337.689 271.517,305.810 271.810 L 272.120 272.120 271.810 305.810 C 271.517 337.689,271.390 339.688,269.446 342.997 C 263.136 353.737,248.864 353.737,242.554 342.997 C 240.610 339.688,240.483 337.689,240.190 305.810 L 239.880 272.120 206.190 271.810 C 168.553 271.464,168.209 271.401,163.253 264.048 C 158.527 257.034,161.170 247.156,169.003 242.554 C 172.312 240.610,174.311 240.483,206.190 240.190 L 239.880 239.880 240.190 206.190 C 240.483 174.311,240.610 172.312,242.554 169.003 C 247.156 161.170,257.034 158.527,264.048 163.253 " stroke="none" fill="#040404" fill-rule="evenodd"></path></g></svg>