<svg id="svg" xmlns="http://www.w3.org/2000/svg" xmlns:xlink="http://www.w3.org/1999/xlink" width="512" height="512" viewBox="0, 0, 512,512"><g id="svgg"><path id="path0" d="M199.241 33.995 C 191.255 38.864,192.007 15.762,192.007 256.000 C 192.007 496.238,191.255 473.136,199.241 478.005 C 205.065 481.557,208.822 480.852,317.000 455.911 C 424.301 431.173,425.917 430.731,429.747 425.048 L 432.000 421.704 432.000 256.000 L 432.000 90.296 429.747 86.952 C 425.917 81.269,424.301 80.827,317.000 56.089 C 208.822 31.148,205.065 30.443,199.241 33.995 M87.241 81.995 C 79.304 86.834,80.007 69.912,80.007 256.000 C 80.007 419.382,80.033 421.542,81.995 424.759 C 86.399 431.983,86.452 431.992,125.250 431.996 L 160.000 432.000 160.000 256.000 L 160.000 80.000 125.250 80.004 C 92.339 80.007,90.328 80.113,87.241 81.995 M264.048 211.253 C 271.502 216.276,271.500 216.267,271.500 256.000 C 271.500 295.733,271.502 295.724,264.048 300.747 C 257.034 305.473,247.156 302.830,242.554 294.997 C 239.369 289.575,239.369 222.425,242.554 217.003 C 247.156 209.170,257.034 206.527,264.048 211.253 " stroke="none" fill="#040404" fill-rule="evenodd"></path></g></svg>