<svg id="svg" xmlns="http://www.w3.org/2000/svg" xmlns:xlink="http://www.w3.org/1999/xlink" width="512" height="512" viewBox="0, 0, 512,512"><g id="svgg"><path id="path0" d="M154.000 48.637 C 71.318 64.363,40.029 164.243,99.657 222.112 C 164.571 285.111,271.515 239.921,271.496 149.500 C 271.486 101.609,242.830 63.458,197.470 50.944 C 189.670 48.792,161.144 47.279,154.000 48.637 M346.000 70.482 C 324.398 75.297,305.419 88.736,293.987 107.313 C 288.397 116.395,288.365 116.587,290.641 127.000 C 293.001 137.798,292.997 158.828,290.632 171.551 L 288.764 181.602 291.505 187.009 C 328.903 260.811,442.477 232.592,442.473 149.500 C 442.471 97.821,395.595 59.427,346.000 70.482 M321.000 241.460 C 306.181 244.507,292.205 250.890,279.656 260.344 L 272.812 265.500 276.055 268.000 C 315.387 298.319,336.034 339.608,334.846 385.568 L 334.473 400.000 385.026 400.000 C 448.623 400.000,451.817 399.350,468.091 383.086 C 508.977 342.225,475.669 261.121,410.500 242.853 C 400.452 240.037,333.027 238.987,321.000 241.460 M128.500 262.615 C 29.627 280.350,-14.768 419.566,71.460 441.485 C 80.261 443.722,260.269 443.732,269.754 441.496 C 348.382 422.957,318.488 294.829,228.934 266.539 C 211.058 260.892,151.152 258.551,128.500 262.615 " stroke="none" fill="#040404" fill-rule="evenodd"></path></g></svg>