<svg id="svg" xmlns="http://www.w3.org/2000/svg" xmlns:xlink="http://www.w3.org/1999/xlink" width="512" height="512" viewBox="0, 0, 512,512"><g id="svgg"><path id="path0" d="M148.203 43.113 C 98.703 48.425,64.005 74.791,49.602 118.037 C 42.228 140.180,42.500 134.894,42.500 256.000 C 42.500 356.511,42.633 365.200,44.309 374.000 C 55.086 430.598,91.845 463.331,151.019 469.020 C 171.578 470.997,362.169 469.833,374.000 467.659 C 429.740 457.415,463.009 420.442,468.946 362.144 C 470.374 348.117,470.374 163.883,468.946 149.856 C 463.009 91.558,429.748 54.594,374.000 44.340 C 363.294 42.371,165.153 41.294,148.203 43.113 M288.942 166.983 C 296.561 169.168,301.762 177.413,300.478 185.271 C 299.836 189.196,297.338 191.959,265.670 223.756 L 231.553 258.013 264.195 290.756 C 292.633 319.282,296.982 324.047,297.957 327.750 C 301.217 340.123,289.306 350.630,277.718 345.604 C 271.767 343.023,196.377 266.210,194.927 261.250 C 192.309 252.300,192.070 252.607,235.866 208.707 C 279.722 164.748,280.103 164.448,288.942 166.983 " stroke="none" fill="#040404" fill-rule="evenodd"></path></g></svg>