<svg id="svg" xmlns="http://www.w3.org/2000/svg" xmlns:xlink="http://www.w3.org/1999/xlink" width="512" height="512" viewBox="0, 0, 512,512"><g id="svgg"><path id="path0" d="M226.500 1.109 C 16.765 26.770,-75.121 280.310,70.175 432.460 C 213.441 582.486,466.337 509.648,507.517 306.500 C 541.838 137.189,397.381 -19.797,226.500 1.109 M266.642 126.531 C 269.297 128.086,272.011 130.864,273.723 133.777 L 276.500 138.500 276.786 186.714 L 277.073 234.927 325.286 235.214 L 373.500 235.500 378.223 238.277 C 391.927 246.332,391.927 265.668,378.223 273.723 L 373.500 276.500 325.286 276.786 L 277.073 277.073 276.786 325.286 L 276.500 373.500 273.723 378.223 C 265.668 391.927,246.332 391.927,238.277 378.223 L 235.500 373.500 235.214 325.286 L 234.927 277.073 186.714 276.786 L 138.500 276.500 133.777 273.723 C 120.073 265.668,120.073 246.332,133.777 238.277 L 138.500 235.500 186.714 235.214 L 234.927 234.927 235.214 186.714 L 235.500 138.500 238.241 133.837 C 244.266 123.589,256.328 120.486,266.642 126.531 " stroke="none" fill="#040404" fill-rule="evenodd"></path></g></svg>