<svg id="svg" xmlns="http://www.w3.org/2000/svg" xmlns:xlink="http://www.w3.org/1999/xlink" width="512" height="512" viewBox="0, 0, 512,512"><g id="svgg"><path id="path0" d="M230.500 0.651 C 73.153 17.569,-31.496 168.318,7.937 321.256 C 42.975 457.148,184.028 539.446,321.256 504.063 C 457.148 469.025,539.446 327.972,504.063 190.744 C 479.066 93.796,398.201 20.222,297.555 2.854 C 285.834 0.831,242.166 -0.603,230.500 0.651 M275.144 48.036 C 446.394 65.170,525.828 269.570,410.390 396.049 C 288.220 529.902,66.110 455.792,48.036 275.144 C 35.235 147.197,147.197 35.235,275.144 48.036 M145.424 176.996 C 113.046 189.839,122.169 237.439,157.000 237.391 C 189.929 237.346,199.985 192.832,170.403 178.059 C 163.643 174.682,152.457 174.207,145.424 176.996 M346.047 176.171 C 329.188 181.010,319.776 200.634,326.146 217.662 C 337.099 246.935,379.662 242.988,386.081 212.104 C 390.763 189.575,368.614 169.695,346.047 176.171 M237.500 279.670 C 194.619 286.459,153.640 313.497,153.640 335.000 C 153.640 348.819,163.185 358.367,177.000 358.367 C 185.001 358.367,187.850 356.973,198.500 347.845 C 203.562 343.507,210.173 339.147,216.500 335.972 C 248.853 319.741,286.015 324.290,313.500 347.845 C 331.470 363.246,347.751 362.171,356.569 345.000 C 372.706 313.582,294.460 270.650,237.500 279.670 " stroke="none" fill="#040404" fill-rule="evenodd"></path></g></svg>