<svg id="svg" xmlns="http://www.w3.org/2000/svg" xmlns:xlink="http://www.w3.org/1999/xlink" width="512" height="512" viewBox="0, 0, 512,512"><g id="svgg"><path id="path0" d="M244.992 80.640 C 242.176 80.992,239.181 81.439,238.336 81.634 C 227.577 84.116,224.386 85.100,217.856 87.950 C 167.270 110.031,145.583 169.895,170.331 219.136 C 193.757 265.745,250.572 285.062,297.680 262.434 C 354.972 234.915,369.863 159.542,327.411 111.939 C 314.919 97.931,295.145 86.101,278.528 82.694 C 277.542 82.492,275.814 82.123,274.688 81.875 C 266.245 80.011,254.071 79.505,244.992 80.640 M237.312 304.677 C 222.241 306.206,216.790 306.976,206.336 309.050 C 200.666 310.175,197.513 310.942,187.648 313.595 C 184.123 314.543,179.853 315.874,177.408 316.786 C 176.282 317.206,174.093 317.961,172.544 318.464 C 149.159 326.058,118.186 343.713,96.768 361.659 C 82.951 373.236,65.617 391.420,58.027 402.300 L 56.155 404.985 57.261 405.944 C 57.870 406.472,58.368 407.179,58.368 407.514 C 58.368 407.850,58.598 407.982,58.880 407.808 C 59.162 407.634,59.392 407.915,59.392 408.433 C 59.392 408.950,59.840 409.697,60.389 410.092 C 60.937 410.487,61.269 410.999,61.126 411.229 C 60.984 411.460,61.128 411.648,61.446 411.648 C 62.069 411.648,63.488 412.896,63.488 413.444 C 63.488 413.627,64.401 414.653,65.516 415.725 C 66.632 416.797,67.611 417.979,67.692 418.353 C 67.774 418.726,69.152 420.340,70.755 421.939 C 72.359 423.538,73.530 424.988,73.358 425.159 C 73.186 425.331,73.429 425.472,73.899 425.472 C 74.411 425.472,74.752 425.882,74.752 426.496 C 74.752 427.082,75.093 427.520,75.550 427.520 C 75.989 427.520,76.206 427.750,76.032 428.032 C 75.858 428.314,76.132 428.548,76.642 428.552 C 77.427 428.558,77.451 428.635,76.800 429.056 C 76.182 429.455,76.263 429.554,77.214 429.560 C 77.871 429.565,78.256 429.796,78.080 430.080 C 77.906 430.362,78.018 430.592,78.329 430.592 C 79.099 430.592,80.988 432.579,81.904 434.352 C 82.318 435.152,82.747 435.535,82.858 435.202 C 82.969 434.869,83.329 435.135,83.657 435.794 C 83.986 436.453,84.535 437.021,84.879 437.056 C 85.223 437.091,85.748 437.149,86.046 437.184 C 86.344 437.219,86.446 437.478,86.272 437.760 C 86.098 438.042,86.212 438.272,86.526 438.272 C 86.840 438.272,88.454 439.654,90.112 441.344 C 91.770 443.034,93.362 444.416,93.648 444.416 C 94.274 444.416,98.304 448.409,98.304 449.030 C 98.304 449.270,98.754 449.610,99.304 449.784 C 99.853 449.959,101.109 450.907,102.094 451.892 C 103.079 452.877,104.012 453.672,104.166 453.658 C 105.198 453.564,105.472 453.723,105.472 454.416 C 105.472 454.847,105.875 455.329,106.368 455.486 C 108.364 456.125,109.568 456.915,109.568 457.589 C 109.568 457.980,109.756 458.184,109.987 458.042 C 110.217 457.899,111.013 458.346,111.756 459.035 C 112.499 459.724,113.463 460.288,113.898 460.288 C 114.332 460.288,114.688 460.518,114.688 460.800 C 114.688 461.082,115.036 461.312,115.461 461.312 C 115.886 461.312,116.948 461.995,117.822 462.831 C 118.696 463.666,120.077 464.644,120.890 465.004 C 121.703 465.364,122.368 465.832,122.368 466.045 C 122.368 466.258,122.727 466.432,123.166 466.432 C 123.605 466.432,123.822 466.662,123.648 466.944 C 123.474 467.226,123.820 467.456,124.416 467.456 C 125.012 467.456,125.358 467.686,125.184 467.968 C 125.005 468.258,125.435 468.480,126.178 468.480 C 126.898 468.480,127.488 468.710,127.488 468.992 C 127.488 469.274,128.006 469.508,128.640 469.512 C 129.321 469.516,129.553 469.674,129.209 469.896 C 128.786 470.168,128.821 470.454,129.337 470.932 C 129.917 471.471,130.049 471.471,130.056 470.932 C 130.061 470.506,130.197 470.462,130.440 470.807 C 131.100 471.745,134.674 473.600,135.837 473.608 C 136.750 473.614,136.816 473.709,136.192 474.112 C 135.571 474.513,135.644 474.610,136.576 474.616 C 137.210 474.620,137.730 474.797,137.732 475.008 C 137.737 475.495,140.235 476.669,141.286 476.680 C 141.986 476.687,141.989 476.747,141.312 477.184 C 140.677 477.594,140.724 477.682,141.582 477.688 C 142.153 477.692,143.102 478.033,143.691 478.446 C 144.280 478.858,144.907 479.050,145.085 478.873 C 145.263 478.695,145.408 478.786,145.408 479.076 C 145.408 479.365,145.984 479.492,146.688 479.357 C 147.435 479.214,147.968 479.351,147.968 479.684 C 147.968 479.999,148.314 480.256,148.736 480.256 C 149.158 480.256,149.504 480.486,149.504 480.768 C 149.504 481.050,149.965 481.280,150.528 481.280 C 151.091 481.280,151.552 481.510,151.552 481.792 C 151.552 482.074,152.142 482.304,152.862 482.304 C 153.605 482.304,154.035 482.526,153.856 482.816 C 153.676 483.108,154.117 483.328,154.880 483.328 C 155.617 483.328,156.108 483.511,155.970 483.734 C 155.832 483.957,156.452 484.195,157.347 484.262 C 158.243 484.329,159.053 484.608,159.147 484.880 C 159.241 485.153,159.715 485.376,160.202 485.376 C 160.689 485.376,161.582 485.837,162.186 486.400 C 162.791 486.963,163.986 487.424,164.843 487.424 C 165.699 487.424,166.400 487.654,166.400 487.936 C 166.400 488.218,166.990 488.448,167.710 488.448 C 168.453 488.448,168.883 488.670,168.704 488.960 C 168.520 489.258,169.030 489.472,169.924 489.472 C 170.768 489.472,171.602 489.702,171.776 489.984 C 171.950 490.266,172.655 490.496,173.342 490.496 C 174.030 490.496,174.592 490.670,174.592 490.883 C 174.592 491.352,178.262 492.544,179.704 492.544 C 180.272 492.544,180.736 492.774,180.736 493.056 C 180.736 493.338,181.441 493.568,182.302 493.568 C 183.216 493.568,183.737 493.781,183.552 494.080 C 183.361 494.390,184.069 494.592,185.344 494.592 C 186.619 494.592,187.327 494.794,187.136 495.104 C 186.947 495.409,187.567 495.616,188.672 495.616 C 189.806 495.616,190.399 495.819,190.200 496.141 C 190.022 496.429,190.066 496.632,190.298 496.592 C 191.802 496.331,194.572 496.718,194.304 497.152 C 194.113 497.462,194.821 497.664,196.096 497.664 C 197.371 497.664,198.079 497.866,197.888 498.176 C 197.694 498.491,198.531 498.688,200.059 498.688 C 201.428 498.688,202.805 498.946,203.120 499.261 C 203.435 499.576,204.633 499.821,205.783 499.805 C 206.983 499.788,207.872 500.017,207.872 500.341 C 207.872 500.652,208.011 500.768,208.181 500.598 C 208.350 500.428,209.012 500.488,209.652 500.731 C 210.409 501.019,211.037 500.963,211.455 500.571 C 211.948 500.108,212.150 500.116,212.331 500.608 C 212.485 501.030,213.695 501.248,215.881 501.248 C 217.961 501.248,219.079 501.439,218.880 501.760 C 218.681 502.083,219.884 502.272,222.135 502.272 C 224.099 502.272,225.783 502.495,225.877 502.768 C 225.971 503.041,228.294 503.298,231.040 503.338 C 233.786 503.378,236.032 503.616,236.032 503.866 C 236.032 504.122,244.716 504.320,256.000 504.320 C 267.284 504.320,275.968 504.122,275.968 503.866 C 275.968 503.616,278.214 503.378,280.960 503.338 C 283.706 503.298,286.029 503.041,286.123 502.768 C 286.217 502.495,287.887 502.272,289.835 502.272 C 291.854 502.272,293.376 502.052,293.376 501.760 C 293.376 501.471,294.837 501.248,296.734 501.248 C 298.843 501.248,299.975 501.057,299.776 500.736 C 299.602 500.454,299.690 500.224,299.972 500.224 C 300.253 500.224,300.621 500.446,300.788 500.716 C 300.982 501.031,301.573 501.026,302.422 500.703 C 303.153 500.425,304.239 500.334,304.836 500.501 C 305.699 500.742,305.764 500.694,305.152 500.265 C 304.301 499.670,304.638 499.567,307.020 499.695 C 307.907 499.743,308.785 499.535,308.971 499.235 C 309.156 498.934,310.460 498.688,311.868 498.688 C 313.445 498.688,314.307 498.491,314.112 498.176 C 313.921 497.867,314.619 497.664,315.874 497.664 C 317.017 497.664,317.952 497.434,317.952 497.152 C 317.952 496.870,318.643 496.640,319.488 496.640 C 320.333 496.640,321.024 496.410,321.024 496.128 C 321.024 495.846,321.946 495.616,323.072 495.616 C 324.198 495.616,325.120 495.386,325.120 495.104 C 325.120 494.822,325.811 494.592,326.656 494.592 C 327.501 494.592,328.192 494.362,328.192 494.080 C 328.192 493.798,328.985 493.568,329.954 493.568 C 330.923 493.568,331.858 493.338,332.032 493.056 C 332.206 492.774,332.796 492.544,333.342 492.544 C 333.889 492.544,334.336 492.314,334.336 492.032 C 334.336 491.750,335.027 491.520,335.872 491.520 C 336.717 491.520,337.408 491.290,337.408 491.008 C 337.408 490.726,337.970 490.496,338.658 490.496 C 339.345 490.496,340.050 490.266,340.224 489.984 C 340.398 489.702,341.103 489.472,341.790 489.472 C 342.478 489.472,343.040 489.242,343.040 488.960 C 343.040 488.678,343.602 488.448,344.290 488.448 C 344.977 488.448,345.682 488.218,345.856 487.936 C 346.030 487.654,346.620 487.424,347.166 487.424 C 347.713 487.424,348.160 487.194,348.160 486.912 C 348.160 486.630,348.736 486.400,349.440 486.400 C 350.144 486.400,350.720 486.170,350.720 485.888 C 350.720 485.606,351.296 485.376,352.000 485.376 C 352.704 485.376,353.280 485.146,353.280 484.864 C 353.280 484.582,353.741 484.352,354.304 484.352 C 354.867 484.352,355.328 484.122,355.328 483.840 C 355.328 483.558,355.890 483.328,356.578 483.328 C 357.265 483.328,357.970 483.098,358.144 482.816 C 358.318 482.534,358.908 482.304,359.454 482.304 C 360.001 482.304,360.448 482.074,360.448 481.792 C 360.448 481.510,360.794 481.280,361.216 481.280 C 361.638 481.280,361.984 481.050,361.984 480.768 C 361.984 480.486,362.445 480.256,363.008 480.256 C 363.571 480.256,364.032 480.001,364.032 479.688 C 364.032 479.343,364.520 479.243,365.281 479.434 C 365.967 479.607,366.672 479.517,366.847 479.234 C 367.022 478.951,367.612 478.720,368.158 478.720 C 368.705 478.720,369.152 478.490,369.152 478.208 C 369.152 477.926,369.577 477.696,370.097 477.696 C 370.616 477.696,371.458 477.235,371.968 476.672 C 372.478 476.109,373.205 475.648,373.583 475.648 C 373.962 475.648,374.272 475.418,374.272 475.136 C 374.272 474.854,374.631 474.624,375.070 474.624 C 375.509 474.624,375.723 474.388,375.544 474.099 C 375.366 473.811,375.410 473.608,375.642 473.648 C 376.784 473.846,377.764 473.505,378.783 472.556 C 379.400 471.982,379.904 471.776,379.904 472.098 C 379.904 472.421,380.572 471.969,381.389 471.094 C 382.206 470.220,383.243 469.504,383.693 469.504 C 384.144 469.504,384.512 469.274,384.512 468.992 C 384.512 468.710,384.973 468.480,385.536 468.480 C 386.099 468.480,386.560 468.250,386.560 467.968 C 386.560 467.686,386.970 467.456,387.471 467.456 C 387.972 467.456,388.714 466.995,389.120 466.432 C 389.526 465.869,390.153 465.408,390.513 465.408 C 390.873 465.408,391.168 465.178,391.168 464.896 C 391.168 464.614,391.642 464.384,392.222 464.384 C 392.802 464.384,393.134 464.154,392.960 463.872 C 392.786 463.590,392.952 463.360,393.329 463.360 C 393.706 463.360,394.346 462.899,394.752 462.336 C 395.158 461.773,395.815 461.312,396.213 461.312 C 396.611 461.312,397.349 460.836,397.853 460.254 C 398.358 459.673,398.906 459.269,399.071 459.358 C 399.473 459.574,402.429 457.577,402.431 457.088 C 402.431 456.877,402.893 456.704,403.456 456.704 C 404.019 456.704,404.480 456.528,404.480 456.313 C 404.480 456.099,404.998 455.687,405.632 455.399 C 406.266 455.110,406.721 454.578,406.643 454.215 C 406.566 453.853,406.739 453.702,407.027 453.880 C 407.316 454.059,407.552 453.922,407.552 453.577 C 407.552 453.232,407.690 453.087,407.859 453.256 C 408.028 453.425,408.826 452.887,409.634 452.062 C 410.441 451.236,411.340 450.560,411.631 450.560 C 411.922 450.560,412.160 450.330,412.160 450.048 C 412.160 449.766,412.506 449.536,412.928 449.536 C 413.350 449.536,413.696 449.316,413.696 449.047 C 413.696 448.778,414.261 448.030,414.951 447.383 C 416.936 445.525,417.792 444.864,417.792 445.189 C 417.792 445.355,419.388 443.872,421.338 441.895 C 423.451 439.752,424.986 438.552,425.137 438.926 C 425.302 439.331,425.405 439.276,425.432 438.770 C 425.468 438.064,427.166 436.224,427.782 436.224 C 428.307 436.224,429.980 434.247,429.696 433.963 C 429.532 433.798,429.795 433.664,430.281 433.664 C 430.767 433.664,431.066 433.491,430.946 433.280 C 430.658 432.774,432.957 430.568,433.356 430.967 C 433.525 431.136,433.664 430.877,433.664 430.391 C 433.664 429.905,433.894 429.650,434.176 429.824 C 434.458 429.998,434.688 429.886,434.688 429.575 C 434.688 429.264,435.264 428.433,435.968 427.729 C 436.672 427.025,437.248 426.216,437.248 425.931 C 437.248 425.645,437.478 425.554,437.760 425.728 C 438.042 425.902,438.272 425.789,438.272 425.477 C 438.272 425.166,439.885 423.304,441.856 421.341 C 443.827 419.377,445.440 417.523,445.440 417.219 C 445.440 416.915,446.131 416.021,446.976 415.232 C 447.821 414.443,448.516 413.486,448.520 413.107 C 448.526 412.579,448.645 412.597,449.024 413.184 C 449.425 413.805,449.522 413.732,449.528 412.800 C 449.533 412.101,449.850 411.648,450.334 411.648 C 450.773 411.648,451.016 411.460,450.874 411.229 C 450.731 410.999,451.063 410.487,451.611 410.092 C 452.160 409.697,452.608 409.081,452.608 408.723 C 452.608 407.812,454.717 405.481,455.245 405.808 C 456.511 406.590,455.347 404.223,452.891 401.022 C 423.256 362.395,381.270 332.378,335.629 317.188 C 314.537 310.168,299.468 307.098,274.028 304.637 C 267.894 304.044,243.289 304.071,237.312 304.677 " stroke="none" fill="#4494fc" fill-rule="evenodd"></path><path id="path1" d="M233.472 8.192 C 233.472 8.497,231.509 8.704,228.608 8.704 C 225.707 8.704,223.744 8.911,223.744 9.216 C 223.744 9.509,222.208 9.728,220.160 9.728 C 218.112 9.728,216.576 9.947,216.576 10.240 C 216.576 10.522,215.366 10.766,213.888 10.783 C 212.410 10.799,210.048 11.040,208.640 11.318 C 207.232 11.596,204.928 12.055,203.520 12.338 C 202.112 12.621,200.095 12.980,199.037 13.136 C 197.979 13.292,196.986 13.626,196.831 13.878 C 196.675 14.130,195.867 14.336,195.035 14.336 C 194.203 14.336,193.122 14.538,192.633 14.785 C 191.154 15.532,188.155 16.384,187.002 16.384 C 186.405 16.384,185.774 16.614,185.600 16.896 C 185.426 17.178,184.620 17.408,183.808 17.408 C 182.996 17.408,182.190 17.638,182.016 17.920 C 181.842 18.202,181.022 18.432,180.194 18.432 C 179.366 18.432,178.688 18.662,178.688 18.944 C 178.688 19.226,177.997 19.456,177.152 19.456 C 176.307 19.456,175.616 19.686,175.616 19.968 C 175.616 20.250,175.054 20.480,174.366 20.480 C 173.679 20.480,172.974 20.710,172.800 20.992 C 172.626 21.274,172.036 21.504,171.490 21.504 C 170.943 21.504,170.496 21.734,170.496 22.016 C 170.496 22.298,169.934 22.528,169.246 22.528 C 168.559 22.528,167.882 22.713,167.743 22.939 C 167.603 23.164,166.322 23.667,164.896 24.055 C 163.471 24.443,162.304 24.950,162.304 25.181 C 162.304 25.411,161.728 25.600,161.024 25.600 C 160.320 25.600,159.744 25.830,159.744 26.112 C 159.744 26.394,159.283 26.624,158.720 26.624 C 158.157 26.624,157.696 26.854,157.696 27.136 C 157.696 27.418,157.235 27.648,156.672 27.648 C 156.109 27.648,155.648 27.878,155.648 28.160 C 155.648 28.442,155.187 28.672,154.624 28.672 C 154.061 28.672,153.600 28.902,153.600 29.184 C 153.600 29.466,152.909 29.696,152.064 29.696 C 151.219 29.696,150.528 29.870,150.528 30.083 C 150.528 30.296,149.779 30.772,148.864 31.140 C 145.212 32.611,135.680 37.539,135.680 37.956 C 135.680 38.200,135.219 38.400,134.656 38.400 C 134.093 38.400,133.632 38.630,133.632 38.912 C 133.632 39.194,133.171 39.424,132.608 39.424 C 132.045 39.424,131.584 39.654,131.584 39.936 C 131.584 40.218,131.282 40.448,130.913 40.448 C 130.543 40.448,129.746 40.909,129.142 41.472 C 128.537 42.035,127.688 42.496,127.253 42.496 C 126.819 42.496,126.464 42.698,126.464 42.946 C 126.464 43.193,125.773 43.682,124.928 44.032 C 124.083 44.382,123.392 44.871,123.392 45.118 C 123.392 45.366,123.090 45.568,122.721 45.568 C 122.351 45.568,121.602 45.971,121.057 46.464 C 120.511 46.957,119.430 47.687,118.656 48.087 C 117.882 48.486,117.248 49.005,117.248 49.239 C 117.248 49.473,116.953 49.664,116.593 49.664 C 116.233 49.664,115.606 50.125,115.200 50.688 C 114.794 51.251,114.103 51.712,113.664 51.712 C 113.225 51.712,112.534 52.173,112.128 52.736 C 111.722 53.299,111.035 53.760,110.602 53.760 C 110.168 53.760,109.192 54.336,108.433 55.040 C 107.674 55.744,106.840 56.320,106.580 56.320 C 106.320 56.320,105.158 57.242,103.997 58.368 C 102.836 59.494,101.691 60.416,101.451 60.416 C 101.212 60.416,100.293 61.107,99.409 61.952 C 98.525 62.797,97.708 63.488,97.595 63.488 C 97.481 63.488,95.727 65.101,93.696 67.072 C 91.665 69.043,89.811 70.656,89.574 70.656 C 89.078 70.656,82.492 76.794,78.651 80.836 C 77.211 82.352,74.822 84.823,73.344 86.329 C 71.866 87.834,70.656 89.274,70.656 89.529 C 70.656 89.784,69.216 91.503,67.456 93.349 C 63.137 97.878,61.908 99.280,60.416 101.382 C 59.718 102.364,58.511 103.836,57.734 104.652 C 56.956 105.468,56.320 106.342,56.320 106.594 C 56.320 106.846,55.744 107.674,55.040 108.433 C 54.336 109.192,53.760 110.168,53.760 110.602 C 53.760 111.035,53.299 111.722,52.736 112.128 C 52.173 112.534,51.712 113.225,51.712 113.664 C 51.712 114.103,51.251 114.794,50.688 115.200 C 50.125 115.606,49.664 116.233,49.664 116.593 C 49.664 116.953,49.473 117.248,49.239 117.248 C 49.005 117.248,48.486 117.882,48.087 118.656 C 47.687 119.430,46.957 120.511,46.464 121.057 C 45.971 121.602,45.568 122.246,45.568 122.486 C 45.568 122.726,45.107 123.417,44.544 124.022 C 43.981 124.626,43.520 125.423,43.520 125.793 C 43.520 126.162,43.290 126.464,43.008 126.464 C 42.726 126.464,42.496 126.819,42.496 127.253 C 42.496 127.688,42.035 128.537,41.472 129.142 C 40.909 129.746,40.448 130.543,40.448 130.913 C 40.448 131.282,40.218 131.584,39.936 131.584 C 39.654 131.584,39.424 132.045,39.424 132.608 C 39.424 133.171,39.194 133.632,38.912 133.632 C 38.630 133.632,38.400 134.093,38.400 134.656 C 38.400 135.219,38.203 135.680,37.962 135.680 C 37.430 135.680,31.744 146.711,31.744 147.745 C 31.744 148.149,31.514 148.480,31.232 148.480 C 30.950 148.480,30.720 148.941,30.720 149.504 C 30.720 150.067,30.490 150.528,30.208 150.528 C 29.926 150.528,29.696 151.219,29.696 152.064 C 29.696 152.909,29.466 153.600,29.184 153.600 C 28.902 153.600,28.672 154.061,28.672 154.624 C 28.672 155.187,28.442 155.648,28.160 155.648 C 27.878 155.648,27.648 156.109,27.648 156.672 C 27.648 157.235,27.418 157.696,27.136 157.696 C 26.854 157.696,26.624 158.157,26.624 158.720 C 26.624 159.283,26.394 159.744,26.112 159.744 C 25.830 159.744,25.600 160.320,25.600 161.024 C 25.600 161.728,25.370 162.304,25.088 162.304 C 24.806 162.304,24.576 162.751,24.576 163.298 C 24.576 163.844,24.346 164.434,24.064 164.608 C 23.782 164.782,23.552 165.375,23.552 165.925 C 23.552 166.476,23.348 167.326,23.100 167.815 C 22.851 168.304,22.363 169.395,22.016 170.240 C 21.669 171.085,21.181 172.176,20.932 172.665 C 20.684 173.154,20.480 174.018,20.480 174.585 C 20.480 175.152,20.250 175.616,19.968 175.616 C 19.686 175.616,19.456 176.307,19.456 177.152 C 19.456 177.997,19.226 178.688,18.944 178.688 C 18.662 178.688,18.432 179.366,18.432 180.194 C 18.432 181.022,18.202 181.842,17.920 182.016 C 17.638 182.190,17.408 182.898,17.408 183.589 C 17.408 184.280,17.206 185.246,16.959 185.735 C 16.212 187.214,15.360 190.213,15.360 191.366 C 15.360 191.963,15.130 192.594,14.848 192.768 C 14.566 192.942,14.336 193.864,14.336 194.816 C 14.336 195.768,14.130 196.675,13.878 196.831 C 13.626 196.986,13.292 197.979,13.136 199.037 C 12.980 200.095,12.621 202.112,12.338 203.520 C 12.055 204.928,11.596 207.232,11.318 208.640 C 11.040 210.048,10.799 212.396,10.783 213.858 C 10.766 215.320,10.522 216.658,10.240 216.832 C 9.958 217.006,9.728 218.632,9.728 220.446 C 9.728 222.303,9.504 223.744,9.216 223.744 C 8.913 223.744,8.704 225.611,8.704 228.322 C 8.704 230.840,8.474 233.042,8.192 233.216 C 7.490 233.650,7.490 277.838,8.192 278.272 C 8.474 278.446,8.704 280.635,8.704 283.136 C 8.704 285.637,8.934 287.826,9.216 288.000 C 9.498 288.174,9.728 289.916,9.728 291.870 C 9.728 293.898,9.948 295.424,10.240 295.424 C 10.522 295.424,10.766 296.634,10.783 298.112 C 10.799 299.590,11.040 301.952,11.318 303.360 C 11.596 304.768,12.055 307.072,12.338 308.480 C 12.621 309.888,12.980 311.905,13.136 312.963 C 13.292 314.021,13.626 315.014,13.878 315.169 C 14.130 315.325,14.336 316.232,14.336 317.184 C 14.336 318.136,14.566 319.058,14.848 319.232 C 15.130 319.406,15.360 320.037,15.360 320.634 C 15.360 321.787,16.212 324.786,16.959 326.265 C 17.206 326.754,17.408 327.720,17.408 328.411 C 17.408 329.102,17.638 329.810,17.920 329.984 C 18.202 330.158,18.432 330.817,18.432 331.448 C 18.432 332.079,18.661 332.824,18.941 333.104 C 19.221 333.384,19.502 334.237,19.565 334.999 C 19.628 335.761,19.859 336.384,20.080 336.384 C 20.300 336.384,20.480 336.848,20.480 337.415 C 20.480 337.982,20.710 338.904,20.992 339.463 C 21.274 340.022,21.734 340.938,22.016 341.497 C 22.298 342.056,22.528 342.978,22.528 343.545 C 22.528 344.112,22.758 344.576,23.040 344.576 C 23.322 344.576,23.552 345.138,23.552 345.826 C 23.552 346.513,23.782 347.218,24.064 347.392 C 24.346 347.566,24.576 348.156,24.576 348.702 C 24.576 349.249,24.806 349.696,25.088 349.696 C 25.370 349.696,25.600 350.272,25.600 350.976 C 25.600 351.680,25.830 352.256,26.112 352.256 C 26.394 352.256,26.624 352.717,26.624 353.280 C 26.624 353.843,26.854 354.304,27.136 354.304 C 27.418 354.304,27.648 354.765,27.648 355.328 C 27.648 355.891,27.878 356.352,28.160 356.352 C 28.442 356.352,28.672 356.813,28.672 357.376 C 28.672 357.939,28.902 358.400,29.184 358.400 C 29.466 358.400,29.696 359.091,29.696 359.936 C 29.696 360.781,29.870 361.472,30.083 361.472 C 30.296 361.472,30.772 362.221,31.140 363.136 C 32.611 366.788,37.539 376.320,37.956 376.320 C 38.200 376.320,38.400 376.781,38.400 377.344 C 38.400 377.907,38.630 378.368,38.912 378.368 C 39.194 378.368,39.424 378.829,39.424 379.392 C 39.424 379.955,39.654 380.416,39.936 380.416 C 40.218 380.416,40.448 380.718,40.448 381.087 C 40.448 381.457,40.909 382.254,41.472 382.858 C 42.035 383.463,42.496 384.312,42.496 384.747 C 42.496 385.181,42.726 385.536,43.008 385.536 C 43.290 385.536,43.520 385.838,43.520 386.207 C 43.520 386.577,43.981 387.374,44.544 387.978 C 45.107 388.583,45.568 389.274,45.568 389.514 C 45.568 389.754,45.971 390.398,46.464 390.943 C 46.957 391.489,47.687 392.570,48.087 393.344 C 48.486 394.118,49.005 394.752,49.239 394.752 C 49.473 394.752,49.664 395.047,49.664 395.407 C 49.664 395.767,50.125 396.394,50.688 396.800 C 51.251 397.206,51.712 397.863,51.712 398.261 C 51.712 398.659,52.115 399.357,52.608 399.812 C 53.101 400.267,53.943 401.504,54.481 402.560 C 55.739 405.034,56.223 404.967,58.239 402.035 C 63.495 394.387,79.601 376.824,89.600 367.837 C 102.566 356.182,119.127 344.316,134.400 335.737 C 137.919 333.760,153.239 326.158,156.678 324.682 C 161.803 322.481,169.688 319.391,172.544 318.464 C 174.093 317.961,176.282 317.206,177.408 316.786 C 179.853 315.874,184.123 314.543,187.648 313.595 C 197.513 310.942,200.666 310.175,206.336 309.050 C 216.906 306.953,223.407 306.046,237.972 304.637 C 244.772 303.980,267.228 303.980,274.028 304.637 C 299.468 307.098,314.537 310.168,335.629 317.188 C 364.460 326.783,391.534 342.061,416.256 362.685 C 428.822 373.167,444.777 389.949,453.553 401.914 C 454.582 403.317,455.617 404.468,455.854 404.472 C 456.508 404.484,458.204 402.280,458.223 401.393 C 458.232 400.962,458.701 400.278,459.264 399.872 C 459.827 399.466,460.288 398.775,460.288 398.336 C 460.288 397.897,460.749 397.206,461.312 396.800 C 461.875 396.394,462.336 395.767,462.336 395.407 C 462.336 395.047,462.527 394.752,462.761 394.752 C 462.995 394.752,463.514 394.118,463.913 393.344 C 464.313 392.570,465.043 391.489,465.536 390.943 C 466.029 390.398,466.432 389.649,466.432 389.279 C 466.432 388.910,466.634 388.608,466.882 388.608 C 467.129 388.608,467.618 387.917,467.968 387.072 C 468.318 386.227,468.807 385.536,469.054 385.536 C 469.302 385.536,469.504 385.181,469.504 384.747 C 469.504 384.312,469.965 383.463,470.528 382.858 C 471.091 382.254,471.552 381.457,471.552 381.087 C 471.552 380.718,471.782 380.416,472.064 380.416 C 472.346 380.416,472.576 379.955,472.576 379.392 C 472.576 378.829,472.806 378.368,473.088 378.368 C 473.370 378.368,473.600 377.907,473.600 377.344 C 473.600 376.781,473.797 376.320,474.038 376.320 C 474.570 376.320,480.256 365.289,480.256 364.255 C 480.256 363.851,480.486 363.520,480.768 363.520 C 481.050 363.520,481.280 363.059,481.280 362.496 C 481.280 361.933,481.510 361.472,481.792 361.472 C 482.074 361.472,482.304 360.781,482.304 359.936 C 482.304 359.091,482.534 358.400,482.816 358.400 C 483.098 358.400,483.328 357.939,483.328 357.376 C 483.328 356.813,483.558 356.352,483.840 356.352 C 484.122 356.352,484.352 355.891,484.352 355.328 C 484.352 354.765,484.582 354.304,484.864 354.304 C 485.146 354.304,485.376 353.843,485.376 353.280 C 485.376 352.717,485.606 352.256,485.888 352.256 C 486.170 352.256,486.400 351.680,486.400 350.976 C 486.400 350.272,486.630 349.696,486.912 349.696 C 487.194 349.696,487.424 349.134,487.424 348.446 C 487.424 347.759,487.654 347.054,487.936 346.880 C 488.218 346.706,488.448 346.116,488.448 345.570 C 488.448 345.023,488.678 344.576,488.960 344.576 C 489.242 344.576,489.472 343.885,489.472 343.040 C 489.472 342.195,489.702 341.504,489.984 341.504 C 490.266 341.504,490.496 341.057,490.496 340.510 C 490.496 339.964,490.726 339.374,491.008 339.200 C 491.290 339.026,491.520 338.335,491.520 337.664 C 491.520 336.993,491.750 336.302,492.032 336.128 C 492.314 335.954,492.544 335.263,492.544 334.592 C 492.544 333.921,492.774 333.230,493.056 333.056 C 493.338 332.882,493.568 332.191,493.568 331.520 C 493.568 330.849,493.798 330.158,494.080 329.984 C 494.362 329.810,494.592 329.004,494.592 328.192 C 494.592 327.380,494.822 326.574,495.104 326.400 C 495.386 326.226,495.616 325.420,495.616 324.608 C 495.616 323.796,495.846 322.990,496.128 322.816 C 496.410 322.642,496.640 321.836,496.640 321.024 C 496.640 320.212,496.870 319.406,497.152 319.232 C 497.434 319.058,497.664 318.136,497.664 317.184 C 497.664 316.232,497.870 315.325,498.122 315.169 C 498.374 315.014,498.708 314.021,498.864 312.963 C 499.020 311.905,499.390 309.830,499.686 308.352 C 500.803 302.771,501.174 300.215,501.211 297.856 C 501.231 296.518,501.478 295.424,501.760 295.424 C 502.053 295.424,502.272 293.888,502.272 291.840 C 502.272 289.792,502.491 288.256,502.784 288.256 C 503.089 288.256,503.296 286.293,503.296 283.392 C 503.296 280.491,503.503 278.528,503.808 278.528 C 504.142 278.528,504.320 270.677,504.320 256.000 C 504.320 241.323,504.142 233.472,503.808 233.472 C 503.503 233.472,503.296 231.509,503.296 228.608 C 503.296 225.707,503.089 223.744,502.784 223.744 C 502.491 223.744,502.272 222.208,502.272 220.160 C 502.272 218.112,502.053 216.576,501.760 216.576 C 501.478 216.576,501.234 215.366,501.217 213.888 C 501.201 212.410,500.960 210.048,500.682 208.640 C 500.404 207.232,499.945 204.928,499.662 203.520 C 499.379 202.112,499.020 200.095,498.864 199.037 C 498.708 197.979,498.374 196.986,498.122 196.831 C 497.870 196.675,497.664 195.768,497.664 194.816 C 497.664 193.864,497.434 192.942,497.152 192.768 C 496.870 192.594,496.640 191.963,496.640 191.366 C 496.640 190.213,495.788 187.214,495.041 185.735 C 494.794 185.246,494.592 184.280,494.592 183.589 C 494.592 182.898,494.362 182.190,494.080 182.016 C 493.798 181.842,493.568 181.151,493.568 180.480 C 493.568 179.809,493.338 179.118,493.056 178.944 C 492.774 178.770,492.544 177.950,492.544 177.122 C 492.544 176.294,492.314 175.616,492.032 175.616 C 491.750 175.616,491.520 175.152,491.520 174.585 C 491.520 174.018,491.290 173.096,491.008 172.537 C 490.726 171.978,490.266 171.062,489.984 170.503 C 489.702 169.944,489.472 169.022,489.472 168.455 C 489.472 167.888,489.242 167.424,488.960 167.424 C 488.678 167.424,488.448 166.977,488.448 166.430 C 488.448 165.884,488.218 165.294,487.936 165.120 C 487.654 164.946,487.424 164.241,487.424 163.554 C 487.424 162.866,487.194 162.304,486.912 162.304 C 486.630 162.304,486.400 161.728,486.400 161.024 C 486.400 160.320,486.170 159.744,485.888 159.744 C 485.606 159.744,485.376 159.283,485.376 158.720 C 485.376 158.157,485.146 157.696,484.864 157.696 C 484.582 157.696,484.352 157.235,484.352 156.672 C 484.352 156.109,484.122 155.648,483.840 155.648 C 483.558 155.648,483.328 155.201,483.328 154.654 C 483.328 154.108,483.098 153.518,482.816 153.344 C 482.534 153.170,482.304 152.465,482.304 151.778 C 482.304 151.090,482.074 150.528,481.792 150.528 C 481.510 150.528,481.280 150.067,481.280 149.504 C 481.280 148.941,481.050 148.480,480.768 148.480 C 480.486 148.480,480.256 148.149,480.256 147.745 C 480.256 146.711,474.570 135.680,474.038 135.680 C 473.797 135.680,473.600 135.219,473.600 134.656 C 473.600 134.093,473.370 133.632,473.088 133.632 C 472.806 133.632,472.576 133.171,472.576 132.608 C 472.576 132.045,472.346 131.584,472.064 131.584 C 471.782 131.584,471.552 131.282,471.552 130.913 C 471.552 130.543,471.091 129.746,470.528 129.142 C 469.965 128.537,469.504 127.688,469.504 127.253 C 469.504 126.819,469.302 126.464,469.054 126.464 C 468.807 126.464,468.318 125.773,467.968 124.928 C 467.618 124.083,467.129 123.392,466.882 123.392 C 466.634 123.392,466.432 123.090,466.432 122.721 C 466.432 122.351,466.029 121.602,465.536 121.057 C 465.043 120.511,464.313 119.430,463.913 118.656 C 463.514 117.882,462.995 117.248,462.761 117.248 C 462.527 117.248,462.336 116.953,462.336 116.593 C 462.336 116.233,461.875 115.606,461.312 115.200 C 460.749 114.794,460.288 114.103,460.288 113.664 C 460.288 113.225,459.827 112.534,459.264 112.128 C 458.701 111.722,458.236 111.038,458.232 110.607 C 458.227 110.176,457.536 109.044,456.696 108.091 C 455.856 107.137,455.168 106.169,455.168 105.938 C 455.168 105.707,454.645 104.990,454.005 104.343 C 453.365 103.697,452.282 102.362,451.597 101.376 C 450.913 100.390,449.938 99.211,449.432 98.756 C 448.926 98.301,448.512 97.806,448.512 97.658 C 448.512 97.510,446.899 95.727,444.928 93.696 C 442.957 91.665,441.344 89.806,441.344 89.564 C 441.344 88.490,422.385 69.632,421.305 69.632 C 421.050 69.632,419.600 68.422,418.083 66.944 C 414.472 63.426,412.791 61.957,410.618 60.421 C 409.636 59.727,408.303 58.635,407.657 57.995 C 407.010 57.355,406.293 56.832,406.062 56.832 C 405.831 56.832,404.863 56.144,403.909 55.304 C 402.956 54.464,401.824 53.773,401.393 53.768 C 400.962 53.764,400.278 53.299,399.872 52.736 C 399.466 52.173,398.837 51.712,398.474 51.712 C 398.112 51.712,397.100 51.029,396.226 50.193 C 395.352 49.358,393.971 48.380,393.158 48.020 C 392.345 47.660,391.680 47.192,391.680 46.979 C 391.680 46.766,391.321 46.592,390.882 46.592 C 390.443 46.592,390.226 46.362,390.400 46.080 C 390.574 45.798,390.242 45.568,389.662 45.568 C 389.082 45.568,388.608 45.366,388.608 45.118 C 388.608 44.871,387.917 44.382,387.072 44.032 C 386.227 43.682,385.536 43.193,385.536 42.946 C 385.536 42.698,385.181 42.496,384.747 42.496 C 384.312 42.496,383.463 42.035,382.858 41.472 C 382.254 40.909,381.457 40.448,381.087 40.448 C 380.718 40.448,380.416 40.218,380.416 39.936 C 380.416 39.654,379.955 39.424,379.392 39.424 C 378.829 39.424,378.368 39.220,378.368 38.972 C 378.368 38.723,377.965 38.392,377.472 38.235 C 376.274 37.855,373.547 36.193,373.333 35.712 C 373.239 35.501,372.894 35.327,372.565 35.326 C 372.237 35.324,370.399 34.518,368.481 33.534 C 366.563 32.549,364.662 31.744,364.257 31.744 C 363.852 31.744,363.520 31.514,363.520 31.232 C 363.520 30.950,363.059 30.720,362.496 30.720 C 361.933 30.720,361.472 30.490,361.472 30.208 C 361.472 29.926,360.910 29.696,360.222 29.696 C 359.535 29.696,358.830 29.466,358.656 29.184 C 358.482 28.902,357.892 28.672,357.346 28.672 C 356.799 28.672,356.352 28.442,356.352 28.160 C 356.352 27.878,355.891 27.648,355.328 27.648 C 354.765 27.648,354.304 27.418,354.304 27.136 C 354.304 26.854,353.857 26.624,353.310 26.624 C 352.764 26.624,352.174 26.394,352.000 26.112 C 351.826 25.830,351.236 25.600,350.690 25.600 C 350.143 25.600,349.696 25.370,349.696 25.088 C 349.696 24.806,349.249 24.576,348.702 24.576 C 348.156 24.576,347.566 24.346,347.392 24.064 C 347.218 23.782,346.513 23.552,345.826 23.552 C 345.138 23.552,344.576 23.322,344.576 23.040 C 344.576 22.758,344.112 22.528,343.545 22.528 C 342.978 22.528,342.056 22.298,341.497 22.016 C 340.938 21.734,340.022 21.274,339.463 20.992 C 338.904 20.710,337.982 20.480,337.415 20.480 C 336.848 20.480,336.384 20.250,336.384 19.968 C 336.384 19.686,335.706 19.456,334.878 19.456 C 334.050 19.456,333.230 19.226,333.056 18.944 C 332.882 18.662,332.191 18.432,331.520 18.432 C 330.849 18.432,330.158 18.202,329.984 17.920 C 329.810 17.638,329.102 17.408,328.411 17.408 C 327.720 17.408,326.754 17.206,326.265 16.959 C 324.786 16.212,321.787 15.360,320.634 15.360 C 320.037 15.360,319.406 15.130,319.232 14.848 C 319.058 14.566,318.136 14.336,317.184 14.336 C 316.232 14.336,315.325 14.130,315.169 13.878 C 315.014 13.626,314.021 13.297,312.963 13.146 C 311.028 12.870,307.016 12.085,304.640 11.517 C 303.936 11.348,301.574 11.074,299.392 10.908 C 297.210 10.742,295.424 10.408,295.424 10.167 C 295.424 9.925,293.825 9.728,291.870 9.728 C 289.916 9.728,288.174 9.498,288.000 9.216 C 287.826 8.934,285.637 8.704,283.136 8.704 C 280.635 8.704,278.446 8.474,278.272 8.192 C 277.837 7.488,233.472 7.488,233.472 8.192 M266.496 80.657 C 269.875 81.078,273.562 81.626,274.688 81.875 C 275.814 82.123,277.542 82.492,278.528 82.694 C 332.827 93.826,365.822 156.186,345.784 209.810 C 324.960 265.540,258.116 288.906,206.880 258.367 C 143.135 220.372,145.119 127.201,210.432 91.554 C 218.995 86.881,225.288 84.644,238.336 81.634 C 245.603 79.958,257.552 79.544,266.496 80.657 M56.840 405.851 C 56.854 406.636,57.798 407.780,58.145 407.434 C 58.335 407.244,58.117 406.716,57.661 406.260 C 57.205 405.804,56.836 405.620,56.840 405.851 M453.683 406.835 C 452.406 408.304,452.590 409.179,453.900 407.869 C 454.356 407.413,454.540 407.036,454.309 407.032 C 454.077 407.028,454.227 406.810,454.641 406.548 C 455.055 406.286,455.268 405.946,455.114 405.792 C 454.960 405.638,454.316 406.107,453.683 406.835 M61.440 412.037 C 61.440 412.251,61.901 412.713,62.464 413.065 C 63.655 413.809,63.814 413.436,62.757 412.379 C 61.949 411.572,61.440 411.440,61.440 412.037 M64.065 415.104 C 64.935 416.213,67.620 418.816,67.894 418.816 C 68.373 418.816,67.977 418.263,66.088 416.298 C 64.078 414.206,62.743 413.418,64.065 415.104 M446.541 415.553 C 445.879 416.259,445.464 416.963,445.620 417.119 C 445.903 417.402,446.613 416.783,447.935 415.102 C 449.004 413.741,447.908 414.096,446.541 415.553 M70.656 422.679 C 70.656 423.208,73.108 425.409,73.387 425.131 C 73.540 424.977,73.114 424.300,72.440 423.626 C 71.243 422.428,70.656 422.117,70.656 422.679 M439.373 423.745 C 438.711 424.451,438.260 425.118,438.371 425.229 C 438.617 425.476,441.344 423.178,441.344 422.724 C 441.344 422.079,440.551 422.489,439.373 423.745 M437.248 425.931 C 437.248 426.216,436.648 427.050,435.914 427.784 C 435.180 428.518,434.681 429.220,434.806 429.345 C 434.931 429.469,435.757 428.775,436.643 427.802 C 437.528 426.829,438.027 425.893,437.750 425.722 C 437.474 425.551,437.248 425.645,437.248 425.931 M78.336 430.871 C 78.336 431.401,80.959 433.772,81.237 433.493 C 81.391 433.340,80.927 432.624,80.206 431.903 C 78.931 430.628,78.336 430.300,78.336 430.871 M431.751 431.914 C 431.122 432.567,430.776 433.197,430.983 433.315 C 431.190 433.433,431.875 432.995,432.505 432.342 C 433.134 431.689,433.480 431.059,433.273 430.941 C 433.066 430.823,432.381 431.261,431.751 431.914 M87.105 439.166 C 88.430 440.851,89.137 441.466,89.423 441.180 C 89.580 441.023,89.119 440.304,88.398 439.583 C 86.909 438.095,86.044 437.815,87.105 439.166 M423.501 439.617 C 422.839 440.323,422.434 441.037,422.601 441.204 C 422.937 441.540,424.960 439.397,424.960 438.706 C 424.960 438.104,424.864 438.164,423.501 439.617 M93.696 444.731 C 93.696 445.198,97.430 448.533,97.676 448.286 C 97.885 448.078,94.320 444.416,93.908 444.416 C 93.791 444.416,93.696 444.558,93.696 444.731 M415.228 446.979 C 414.577 447.544,414.148 448.111,414.276 448.239 C 414.404 448.366,415.168 447.904,415.974 447.211 C 416.780 446.519,417.208 445.952,416.926 445.952 C 416.644 445.952,415.880 446.414,415.228 446.979 M382.028 470.325 C 381.648 470.755,381.438 471.209,381.562 471.333 C 381.686 471.457,382.206 471.096,382.717 470.531 C 383.228 469.966,383.438 469.513,383.183 469.523 C 382.929 469.534,382.409 469.895,382.028 470.325 M146.176 479.744 C 146.350 480.026,146.824 480.256,147.230 480.256 C 147.636 480.256,147.968 480.026,147.968 479.744 C 147.968 479.462,147.494 479.232,146.914 479.232 C 146.334 479.232,146.002 479.462,146.176 479.744 M364.032 479.744 C 364.032 480.026,364.378 480.256,364.800 480.256 C 365.222 480.256,365.568 480.026,365.568 479.744 C 365.568 479.462,365.222 479.232,364.800 479.232 C 364.378 479.232,364.032 479.462,364.032 479.744 M361.984 480.768 C 361.984 481.050,362.330 481.280,362.752 481.280 C 363.174 481.280,363.520 481.050,363.520 480.768 C 363.520 480.486,363.174 480.256,362.752 480.256 C 362.330 480.256,361.984 480.486,361.984 480.768 M157.696 484.864 C 157.696 485.146,158.042 485.376,158.464 485.376 C 158.886 485.376,159.232 485.146,159.232 484.864 C 159.232 484.582,158.886 484.352,158.464 484.352 C 158.042 484.352,157.696 484.582,157.696 484.864 M160.000 485.888 C 160.174 486.170,160.662 486.400,161.084 486.400 C 161.507 486.400,161.710 486.170,161.536 485.888 C 161.362 485.606,160.874 485.376,160.452 485.376 C 160.029 485.376,159.826 485.606,160.000 485.888 M350.720 485.888 C 350.720 486.170,351.066 486.400,351.488 486.400 C 351.910 486.400,352.256 486.170,352.256 485.888 C 352.256 485.606,351.910 485.376,351.488 485.376 C 351.066 485.376,350.720 485.606,350.720 485.888 M348.160 486.912 C 348.160 487.194,348.506 487.424,348.928 487.424 C 349.350 487.424,349.696 487.194,349.696 486.912 C 349.696 486.630,349.350 486.400,348.928 486.400 C 348.506 486.400,348.160 486.630,348.160 486.912 M340.224 489.984 C 340.050 490.266,340.253 490.496,340.676 490.496 C 341.098 490.496,341.586 490.266,341.760 489.984 C 341.934 489.702,341.731 489.472,341.308 489.472 C 340.886 489.472,340.398 489.702,340.224 489.984 M172.800 491.008 C 172.974 491.290,173.448 491.520,173.854 491.520 C 174.260 491.520,174.592 491.290,174.592 491.008 C 174.592 490.726,174.118 490.496,173.538 490.496 C 172.958 490.496,172.626 490.726,172.800 491.008 M337.408 491.008 C 337.408 491.290,337.740 491.520,338.146 491.520 C 338.552 491.520,339.026 491.290,339.200 491.008 C 339.374 490.726,339.042 490.496,338.462 490.496 C 337.882 490.496,337.408 490.726,337.408 491.008 M334.336 492.032 C 334.336 492.314,334.668 492.544,335.074 492.544 C 335.480 492.544,335.954 492.314,336.128 492.032 C 336.302 491.750,335.970 491.520,335.390 491.520 C 334.810 491.520,334.336 491.750,334.336 492.032 M178.944 493.056 C 179.118 493.338,179.592 493.568,179.998 493.568 C 180.404 493.568,180.736 493.338,180.736 493.056 C 180.736 492.774,180.262 492.544,179.682 492.544 C 179.102 492.544,178.770 492.774,178.944 493.056 M328.192 494.080 C 328.192 494.362,328.524 494.592,328.930 494.592 C 329.336 494.592,329.810 494.362,329.984 494.080 C 330.158 493.798,329.826 493.568,329.246 493.568 C 328.666 493.568,328.192 493.798,328.192 494.080 M185.754 495.206 C 186.231 495.684,186.505 495.684,186.982 495.206 C 187.460 494.729,187.324 494.592,186.368 494.592 C 185.412 494.592,185.276 494.729,185.754 495.206 M321.024 496.128 C 321.024 496.775,322.070 496.775,323.072 496.128 C 323.670 495.741,323.529 495.630,322.432 495.624 C 321.658 495.620,321.024 495.846,321.024 496.128 M192.922 497.254 C 193.399 497.732,193.673 497.732,194.150 497.254 C 194.628 496.777,194.492 496.640,193.536 496.640 C 192.580 496.640,192.444 496.777,192.922 497.254 M201.472 499.200 C 202.881 499.806,203.382 499.806,203.008 499.200 C 202.834 498.918,202.187 498.704,201.570 498.724 C 200.488 498.759,200.485 498.776,201.472 499.200 M308.992 499.200 C 308.618 499.806,309.119 499.806,310.528 499.200 C 311.515 498.776,311.512 498.759,310.430 498.724 C 309.813 498.704,309.166 498.918,308.992 499.200 M304.128 500.048 C 302.773 500.760,303.527 500.873,305.664 500.277 C 306.570 500.025,306.720 499.841,306.176 499.648 C 305.754 499.499,304.832 499.679,304.128 500.048 M206.336 500.224 C 207.329 500.865,207.872 500.865,207.872 500.224 C 207.872 499.942,207.354 499.716,206.720 499.720 C 205.788 499.726,205.715 499.823,206.336 500.224 M216.576 501.760 C 216.576 502.042,217.023 502.272,217.570 502.272 C 218.116 502.272,218.706 502.042,218.880 501.760 C 219.059 501.470,218.629 501.248,217.886 501.248 C 217.166 501.248,216.576 501.478,216.576 501.760 M293.376 501.760 C 293.376 502.042,293.837 502.272,294.400 502.272 C 294.963 502.272,295.424 502.042,295.424 501.760 C 295.424 501.478,294.963 501.248,294.400 501.248 C 293.837 501.248,293.376 501.478,293.376 501.760 M223.744 502.784 C 223.744 503.066,224.205 503.296,224.768 503.296 C 225.331 503.296,225.792 503.066,225.792 502.784 C 225.792 502.502,225.331 502.272,224.768 502.272 C 224.205 502.272,223.744 502.502,223.744 502.784 M286.208 502.784 C 286.208 503.066,286.669 503.296,287.232 503.296 C 287.795 503.296,288.256 503.066,288.256 502.784 C 288.256 502.502,287.795 502.272,287.232 502.272 C 286.669 502.272,286.208 502.502,286.208 502.784 M233.472 503.920 C 233.472 504.140,234.048 504.320,234.752 504.320 C 235.456 504.320,236.032 504.092,236.032 503.814 C 236.032 503.535,235.456 503.355,234.752 503.413 C 234.048 503.472,233.472 503.699,233.472 503.920 M275.968 503.814 C 275.968 504.092,276.544 504.320,277.248 504.320 C 277.952 504.320,278.528 504.140,278.528 503.920 C 278.528 503.699,277.952 503.472,277.248 503.413 C 276.544 503.355,275.968 503.535,275.968 503.814 " stroke="none" fill="#e3ebfc" fill-rule="evenodd"></path></g></svg>